<?xml version="1.0" standalone="no"?>
<!DOCTYPE svg PUBLIC "-//W3C//DTD SVG 20010904//EN"
 "http://www.w3.org/TR/2001/REC-SVG-20010904/DTD/svg10.dtd">
<svg version="1.0" xmlns="http://www.w3.org/2000/svg"
 width="20.000000pt" height="20.000000pt" viewBox="0 0 20.000000 20.000000"
 preserveAspectRatio="xMidYMid meet">

<g transform="translate(0.000000,20.000000) scale(0.100000,-0.100000)"
fill="#000000" stroke="none">
<path d="M24 187 c-3 -8 -4 -52 -2 -98 l3 -84 70 0 70 0 3 68 c2 41 -1 67 -8
68 -35 4 -50 16 -50 40 0 16 -7 19 -40 19 -25 0 -43 -5 -46 -13z m99 -94 c-7
-2 -21 -2 -30 0 -10 3 -4 5 12 5 17 0 24 -2 18 -5z m-53 -33 c0 -11 -4 -20 -8
-20 -4 0 -8 9 -8 20 0 11 4 20 8 20 4 0 8 -9 8 -20z m53 13 c-7 -2 -21 -2 -30
0 -10 3 -4 5 12 5 17 0 24 -2 18 -5z m7 -23 c0 -5 -11 -10 -25 -10 -14 0 -25
5 -25 10 0 6 11 10 25 10 14 0 25 -4 25 -10z"/>
</g>
</svg>
